<mxfile host="app.diagrams.net" modified="2023-08-30T11:03:36.869Z" agent="Mozilla/5.0 (Windows NT 10.0; Win64; x64; rv:109.0) Gecko/20100101 Firefox/116.0" etag="Xcwqaa2Io4LIz6AX0QRX" version="21.5.2">
  <diagram name="PÃ¡gina-1" id="xNhPNnMRd9htXLf8wS57">
    <mxGraphModel dx="1050" dy="558" grid="1" gridSize="10" guides="1" tooltips="1" connect="1" arrows="1" fold="1" page="1" pageScale="1" pageWidth="827" pageHeight="1169" math="0" shadow="0">
      <root>
        <mxCell id="0" />
        <mxCell id="1" parent="0" />
        <mxCell id="IrRJ5_O-pY0Ifu8mV4sr-18" value="&lt;font style=&quot;font-size: 18px;&quot;&gt;API calls Server&lt;/font&gt;" style="text;html=1;strokeColor=none;fillColor=none;align=center;verticalAlign=middle;whiteSpace=wrap;rounded=0;" parent="1" vertex="1">
          <mxGeometry x="296.2" y="180" width="80" height="30" as="geometry" />
        </mxCell>
        <mxCell id="IrRJ5_O-pY0Ifu8mV4sr-26" value="&lt;font style=&quot;font-size: 24px;&quot;&gt;Data Broker&lt;/font&gt;" style="text;html=1;strokeColor=none;fillColor=none;align=center;verticalAlign=middle;whiteSpace=wrap;rounded=0;" parent="1" vertex="1">
          <mxGeometry x="300" y="50" width="80" height="30" as="geometry" />
        </mxCell>
        <mxCell id="g9L9M4cXe2nwXgYZEAq0-1" value="" style="image;html=1;image=img/lib/clip_art/computers/Server_Rack_128x128.png" parent="1" vertex="1">
          <mxGeometry x="282.4" y="220" width="107.6" height="120" as="geometry" />
        </mxCell>
        <mxCell id="g9L9M4cXe2nwXgYZEAq0-20" value="" style="edgeStyle=orthogonalEdgeStyle;rounded=0;orthogonalLoop=1;jettySize=auto;html=1;" parent="1" source="g9L9M4cXe2nwXgYZEAq0-1" target="g9L9M4cXe2nwXgYZEAq0-10" edge="1">
          <mxGeometry relative="1" as="geometry">
            <mxPoint x="640" y="293" as="sourcePoint" />
          </mxGeometry>
        </mxCell>
        <mxCell id="g9L9M4cXe2nwXgYZEAq0-19" value="" style="edgeStyle=orthogonalEdgeStyle;rounded=0;orthogonalLoop=1;jettySize=auto;html=1;" parent="1" source="g9L9M4cXe2nwXgYZEAq0-9" target="g9L9M4cXe2nwXgYZEAq0-1" edge="1">
          <mxGeometry relative="1" as="geometry">
            <mxPoint y="290" as="targetPoint" />
          </mxGeometry>
        </mxCell>
        <mxCell id="g9L9M4cXe2nwXgYZEAq0-9" value="&lt;font style=&quot;font-size: 24px;&quot;&gt;Data queue start&lt;br&gt;&lt;/font&gt;" style="text;html=1;strokeColor=none;fillColor=none;align=center;verticalAlign=middle;whiteSpace=wrap;rounded=0;" parent="1" vertex="1">
          <mxGeometry x="170" y="265" width="80" height="30" as="geometry" />
        </mxCell>
        <mxCell id="g9L9M4cXe2nwXgYZEAq0-10" value="&lt;font style=&quot;font-size: 24px;&quot;&gt;Data queue finish&lt;br&gt;&lt;/font&gt;" style="text;html=1;strokeColor=none;fillColor=none;align=center;verticalAlign=middle;whiteSpace=wrap;rounded=0;" parent="1" vertex="1">
          <mxGeometry x="430" y="265" width="80" height="30" as="geometry" />
        </mxCell>
      </root>
    </mxGraphModel>
  </diagram>
</mxfile>
